# xmcd
#
# Track frame offsets:
#	182
#	9945
#	21555
#	33545
#	45445
#	56705
#	69542
#	80980
#	91875
#	102565
#	113437
#	123205
#	133595
#	143842
#	157215
#	174557
#	184862
#	197625
#	210362
#	222432
#	234402
#	245005
#	256892
#	270592
#	282957
#	293200
#	305635
#	317600
#	327615
#	339390
#
# Disc length: 4739 seconds
#
# Revision: 5
# Processed by: cddbd v1.5.2PL0 Copyright (c) Steve Scherf et al.
# Submitted via: audiograbber 1.83.01
#
DISCID=c412811e
DTITLE=Various Artist - Nuggets - Original Artyfacts From The First Psychedeli
DTITLE=c Era  [CD3)
DYEAR=1998
DGENRE=Oldies
TTITLE0=Hombres - Let It Out (Let It All Hang Out)
TTITLE1=Golliwogs - Fight Fire
TTITLE2=New Colony Six - At The River's Edge
TTITLE3=Daily Flash - Jack Of Diamonds
TTITLE4=Lyme and Cybelle - Follow Me
TTITLE5=Choir - It's Cold Outside
TTITLE6=Rare Breed - Beg, Borrow And Steal
TTITLE7=Sir Douglas Quintet - She's About A Mover
TTITLE8=Music Explosion - Little Bit O'Soul
TTITLE9='E' Types - Put The Clock Back On The Wall
TTITLE10=Palace Guard - Falling Sugar
TTITLE11=Gestures - Run, Run, Run
TTITLE12=Rationals - I Need You
TTITLE13=Humane Society - Knock, Knock
TTITLE14=Groupies - Primitive
TTITLE15=Sonics - Psycho
TTITLE16=Lyrics - So What 
TTITLE17=Lollipop Shoppe - You Must Be A Witch
TTITLE18=Balloon Farm - A Question Of Temperature
TTITLE19=Mouse and The Traps - Maid Of Sugar - Maid Of Spice
TTITLE20=Uniques - You Ain't Tuff
TTITLE21=Standells - Sometimes Good Guys Don't Wear White
TTITLE22=Mojo Men - She's My Baby
TTITLE23=Unrelated Segments - Story Of My Life
TTITLE24=Third Bardo - I'm Five Years Ahead Of My Time
TTITLE25=We The People - Mirror Of Your Mind
TTITLE26=Shadows Of Knight - Bad Little Woman
TTITLE27=Music Machine - Double Yellow Line
TTITLE28=Human Expression - Optical Sound
TTITLE29=Amboy Dukes - Journey To The Center Of The Mind
EXTD=
EXTT0=
EXTT1=
EXTT2=
EXTT3=
EXTT4=
EXTT5=
EXTT6=
EXTT7=
EXTT8=
EXTT9=
EXTT10=
EXTT11=
EXTT12=
EXTT13=
EXTT14=
EXTT15=
EXTT16=
EXTT17=
EXTT18=
EXTT19=
EXTT20=
EXTT21=
EXTT22=
EXTT23=
EXTT24=
EXTT25=
EXTT26=
EXTT27=
EXTT28=
EXTT29=
PLAYORDER=
